<svg fill="none" xmlns="http://www.w3.org/2000/svg" viewBox="0 0 29 19"> <path d="M1.61111 19H27.3889C28.275 19 29 18.2875 29 17.4167C29 16.5458 28.275 15.8333 27.3889 15.8333H1.61111C0.725 15.8333 0 16.5458 0 17.4167C0 18.2875 0.725 19 1.61111 19ZM1.61111 11.0833H27.3889C28.275 11.0833 29 10.3708 29 9.5C29 8.62917 28.275 7.91667 27.3889 7.91667H1.61111C0.725 7.91667 0 8.62917 0 9.5C0 10.3708 0.725 11.0833 1.61111 11.0833ZM0 1.58333C0 2.45417 0.725 3.16667 1.61111 3.16667H27.3889C28.275 3.16667 29 2.45417 29 1.58333C29 0.7125 28.275 0 27.3889 0H1.61111C0.725 0 0 0.7125 0 1.58333Z" fill="#111315"></path> </svg>