<svg fill="none" xmlns="http://www.w3.org/2000/svg" viewBox="0 0 20 18"> <path d="M10 13V1M10 13L7 10M10 13L13 10M14.8333 7H15.6667C15.9762 7 16.131 7 16.2615 7.01142C17.7118 7.1383 18.8617 8.28819 18.9886 9.73853C19 9.86901 19 10.0238 19 10.3333V12.2C19 13.8802 19 14.7202 18.673 15.362C18.3854 15.9265 17.9265 16.3854 17.362 16.673C16.7202 17 15.8802 17 14.2 17H9M5.16667 7H4.33333C4.02379 7 3.86902 7 3.73853 7.01142C2.28819 7.1383 1.1383 8.28819 1.01142 9.73853C1 9.86901 1 10.0238 1 10.3333V12.2C1 13.8802 1 14.7202 1.32698 15.362C1.6146 15.9265 2.07354 16.3854 2.63803 16.673C3.27976 17 4.11984 17 5.8 17H11" stroke="currentColor" stroke-width="2" stroke-linecap="round" stroke-linejoin="round"></path> </svg>